<?xml version="1.0" encoding="utf-8"?>
<!-- Generator: Adobe Illustrator 22.0.1, SVG Export Plug-In . SVG Version: 6.00 Build 0)  -->
<svg version="1.1" id="Слой_1" xmlns="http://www.w3.org/2000/svg" xmlns:xlink="http://www.w3.org/1999/xlink" x="0px" y="0px"
	 viewBox="0 0 30.5 30.5" style="enable-background:new 0 0 30.5 30.5;" xml:space="preserve">
<style type="text/css">
	.st0{opacity:0.2;fill:#FFFFFF;}
	.st1{fill:#FFFFFF;}
</style>
<circle class="st0" cx="15.2" cy="15.2" r="15.3"/>
<path class="st1" d="M23.3,16.6c-0.3-0.6-0.8-1-1.4-1.4c-0.4-0.2-1-0.4-1.8-0.6c0.7-0.2,1.3-0.5,1.7-0.9c0.4-0.4,0.8-0.8,1-1.3
	c0.2-0.5,0.3-1,0.3-1.5c0-0.7-0.2-1.4-0.7-2c-0.4-0.6-1.1-1.1-1.9-1.4C20.3,7.3,19.7,7.1,19,7V4.3h-2.3V7h-1.5V4.3H13V7H8.1v2.3h0.6
	c0.4,0,0.7,0,0.9,0.1C9.8,9.4,9.9,9.5,10,9.6c0.1,0.1,0.1,0.4,0.1,0.9v9.1c0,0.5,0,0.8-0.1,0.9c-0.1,0.1-0.2,0.2-0.3,0.3
	C9.5,20.9,9.2,21,8.8,21H8.1v2.3H13v2.7h2.3v-2.7h1.4c0,0,0,0,0,0v2.7H19v-2.8c0.7-0.1,1.4-0.2,1.9-0.4c0.9-0.4,1.7-0.9,2.2-1.7
	c0.5-0.7,0.8-1.5,0.8-2.4C23.8,17.9,23.7,17.2,23.3,16.6L23.3,16.6z M14.1,9.6h1.8c1,0,1.8,0.1,2.2,0.2c0.4,0.1,0.7,0.3,0.9,0.6
	c0.2,0.3,0.3,0.7,0.3,1.1c0,0.4-0.1,0.8-0.3,1.1c-0.2,0.3-0.6,0.6-1,0.7c-0.4,0.2-1.1,0.2-2.1,0.2h-1.8V9.6z M19.1,19.6
	c-0.3,0.4-0.7,0.7-1.2,0.8c-0.5,0.1-1,0.2-1.7,0.2h-1.2c-0.4,0-0.6,0-0.7-0.1c-0.1,0-0.2-0.1-0.2-0.2c0-0.1,0-0.4-0.1-0.9v-3.5h2.1
	c0.9,0,1.6,0.1,2.1,0.3c0.5,0.2,0.8,0.4,1,0.8c0.2,0.3,0.3,0.7,0.3,1.2C19.6,18.8,19.5,19.2,19.1,19.6L19.1,19.6z M19.1,19.6"/>
</svg>
