<svg xmlns="http://www.w3.org/2000/svg" viewBox="0 0 35.48 30.348"><defs><style>.cls-1{fill:#f0efeb}</style></defs><g id="Medium"><path id="Path_390" data-name="Path 390" class="cls-1" d="M75.671 23.805L67.6 37.678l10.339 5.17V19.9l-1.153 1.971c-.148.26-.967 1.637-1.115 1.934z" transform="translate(-42.459 -12.499)"/><path id="Path_391" data-name="Path 391" class="cls-1" d="M0 25.344l10.562 5.281V5.781L0 .5v24.844z" transform="translate(0 -.314)"/><path id="Path_392" data-name="Path 392" class="cls-1" d="M31.7 19.3v11.306L42.486 36z" transform="translate(-19.91 -12.122)"/><path id="Path_393" data-name="Path 393" class="cls-1" d="M44.5 12.838l7.7 11.976.037-.037V.9z" transform="translate(-27.95 -.565)"/><path id="Path_394" data-name="Path 394" class="cls-1" d="M74.3 8.74l1.971-3.384L65.523 0 65.3.335v23.877l7.847-13.5c.186-.298.967-1.674 1.153-1.972z" transform="translate(-41.014)"/></g></svg>