<?xml version="1.0" standalone="no"?>
<!DOCTYPE svg PUBLIC "-//W3C//DTD SVG 20010904//EN"
 "http://www.w3.org/TR/2001/REC-SVG-20010904/DTD/svg10.dtd">
<svg version="1.0" xmlns="http://www.w3.org/2000/svg"
 width="1157.000000pt" height="1157.000000pt" viewBox="0 0 1157.000000 1157.000000"
 preserveAspectRatio="xMidYMid meet">
<metadata>
Created by potrace 1.11, written by Peter Selinger 2001-2013
</metadata>
<g transform="translate(0.000000,1157.000000) scale(0.100000,-0.100000)"
fill="#000000" stroke="none">
<path d="M3389 9406 c-2 -2 -42 -6 -89 -10 -47 -4 -96 -8 -110 -10 -14 -3 -45
-7 -70 -10 -49 -7 -77 -11 -160 -27 -30 -6 -68 -13 -85 -16 -63 -10 -264 -65
-370 -99 -454 -149 -861 -376 -1239 -694 -58 -48 -343 -336 -397 -400 -109
-129 -319 -417 -319 -437 0 -3 -13 -25 -30 -50 -145 -215 -344 -703 -415
-1018 -15 -66 -29 -129 -31 -140 -4 -18 -19 -100 -29 -165 -25 -160 -39 -357
-39 -550 1 -131 10 -323 18 -367 2 -10 7 -49 11 -88 4 -38 8 -77 10 -85 1 -8
6 -35 10 -60 22 -142 103 -458 154 -600 189 -528 479 -982 884 -1383 55 -53
124 -119 155 -145 31 -26 63 -53 71 -60 60 -57 316 -236 466 -327 296 -179
760 -360 1080 -421 11 -2 31 -6 45 -9 32 -7 54 -11 110 -20 25 -4 53 -9 64
-11 40 -7 157 -20 281 -30 157 -14 557 -7 651 10 10 2 51 7 89 12 39 4 72 8
75 9 3 0 26 4 51 8 44 7 93 16 114 21 6 1 37 8 70 15 477 101 974 329 1383
634 103 76 104 77 227 184 175 154 252 248 271 336 33 148 -8 289 -113 388
-101 95 -243 131 -376 95 -80 -22 -123 -50 -229 -151 -442 -421 -1047 -702
-1638 -761 -36 -3 -81 -8 -100 -10 -45 -5 -382 -4 -440 1 -418 38 -807 158
-1170 360 -61 34 -289 182 -300 194 -3 3 -39 33 -80 66 -41 33 -84 69 -96 80
-12 11 -52 50 -90 86 -304 291 -535 641 -683 1035 -71 188 -136 443 -156 609
-4 32 -9 68 -11 78 -4 26 -17 269 -17 332 1 66 12 257 18 303 52 375 136 656
284 951 178 353 424 660 742 926 70 59 243 180 320 225 304 178 607 294 924
356 22 4 42 8 45 9 3 0 25 4 50 8 45 7 76 11 220 26 41 4 161 7 265 6 173 -2
232 -6 320 -20 17 -2 53 -7 80 -10 42 -6 88 -15 247 -50 46 -10 177 -49 255
-76 337 -116 710 -337 953 -565 25 -23 65 -61 90 -84 96 -90 174 -128 274
-134 117 -7 227 34 306 114 124 123 152 305 73 465 -49 98 -360 374 -606 537
-281 187 -538 316 -843 421 -128 45 -388 115 -484 131 -14 2 -52 9 -85 15 -33
6 -80 13 -105 16 -25 3 -58 8 -75 11 -16 2 -48 7 -70 10 -49 5 -601 15 -606
10z"/>
<path d="M3458 8005 c-2 -2 -38 -6 -80 -9 -43 -3 -83 -8 -90 -11 -7 -2 -31 -6
-53 -9 -108 -15 -273 -58 -395 -103 -84 -31 -300 -132 -355 -166 -11 -6 -38
-23 -60 -37 -255 -157 -504 -401 -669 -655 -95 -148 -90 -138 -140 -240 -231
-470 -290 -988 -170 -1503 150 -643 592 -1194 1194 -1485 93 -44 286 -120 335
-131 6 -1 19 -5 30 -9 11 -3 31 -9 45 -11 14 -3 45 -10 70 -16 81 -17 88 -18
137 -26 26 -3 57 -8 68 -10 109 -20 451 -20 560 0 11 2 41 6 66 10 66 10 102
16 121 22 9 3 25 6 35 8 68 14 240 65 288 86 11 5 49 21 85 36 170 69 383 199
540 329 105 88 200 180 200 194 0 5 7 14 15 21 15 12 50 99 60 147 10 51 5
156 -10 209 -22 78 -60 137 -125 197 -167 155 -423 151 -595 -9 -130 -121
-222 -187 -350 -251 -71 -36 -203 -89 -245 -98 -180 -41 -224 -47 -360 -47
-132 0 -194 7 -325 37 -174 41 -382 142 -520 252 -114 92 -251 250 -320 368
-58 99 -128 259 -139 317 -2 13 -9 41 -14 63 -42 156 -48 350 -16 559 9 60 52
202 85 280 183 431 574 734 1045 810 83 13 328 15 394 2 14 -2 41 -7 60 -11
129 -23 304 -89 426 -161 92 -54 160 -105 259 -194 78 -71 167 -123 230 -135
53 -9 149 -7 200 6 189 46 326 219 327 413 1 144 -45 239 -176 363 -343 323
-796 533 -1271 588 -58 7 -391 15 -397 10z"/>
<path d="M6723 5736 l0 -1863 436 1 436 1 0 1863 0 1862 -436 0 -436 0 0
-1864z"/>
<path d="M8313 5738 l2 -1863 380 0 380 0 0 1110 c-1 611 -4 1141 -9 1180 l-8
70 164 -206 c89 -113 217 -275 283 -358 66 -84 130 -164 141 -179 58 -72 279
-352 449 -567 104 -132 193 -244 198 -250 18 -23 197 -249 295 -375 59 -74
109 -137 112 -140 3 -3 36 -44 73 -92 80 -103 113 -133 187 -167 54 -25 59
-25 331 -28 l276 -2 0 1865 0 1864 -382 0 -382 0 2 -1107 c1 -610 5 -1139 10
-1178 9 -81 13 -83 -84 40 -39 50 -74 95 -79 100 -4 6 -53 66 -107 135 -55 69
-103 129 -108 135 -4 5 -40 51 -80 101 -39 49 -84 106 -99 125 -15 18 -134
169 -264 334 -563 711 -769 972 -793 1001 -14 17 -55 69 -91 115 -36 46 -85
103 -109 126 -69 68 -99 73 -417 73 l-272 0 1 -1862z"/>
</g>
</svg>
